<?xml version="1.0" encoding="utf-8"?>
<!-- Generator: Adobe Illustrator 25.3.1, SVG Export Plug-In . SVG Version: 6.00 Build 0)  -->
<!DOCTYPE svg PUBLIC "-//W3C//DTD SVG 1.1//EN" "http://www.w3.org/Graphics/SVG/1.1/DTD/svg11.dtd" [
	<!ENTITY ns_extend "http://ns.adobe.com/Extensibility/1.0/">
	<!ENTITY ns_ai "http://ns.adobe.com/AdobeIllustrator/10.0/">
	<!ENTITY ns_graphs "http://ns.adobe.com/Graphs/1.0/">
	<!ENTITY ns_vars "http://ns.adobe.com/Variables/1.0/">
	<!ENTITY ns_imrep "http://ns.adobe.com/ImageReplacement/1.0/">
	<!ENTITY ns_sfw "http://ns.adobe.com/SaveForWeb/1.0/">
	<!ENTITY ns_custom "http://ns.adobe.com/GenericCustomNamespace/1.0/">
	<!ENTITY ns_adobe_xpath "http://ns.adobe.com/XPath/1.0/">
]>
<svg version="1.1" id="Layer_1" xmlns:x="&ns_extend;" xmlns:i="&ns_ai;" xmlns:graph="&ns_graphs;"
	 xmlns="http://www.w3.org/2000/svg" xmlns:xlink="http://www.w3.org/1999/xlink" x="0px" y="0px" viewBox="0 0 470.6 187.1"
	 style="enable-background:new 0 0 470.6 187.1;" xml:space="preserve">
<style type="text/css">
	.st0{fill:url(#SVGID_1_);}
	.st1{fill:#22305D;}
</style>
<metadata><?xpacket begin="﻿" id="W5M0MpCehiHzreSzNTczkc9d"?>
<x:xmpmeta xmlns:x="adobe:ns:meta/" x:xmptk="Adobe XMP Core 6.0-c006 120.b669747, 2021/05/19-19:07:51        ">
   <rdf:RDF xmlns:rdf="http://www.w3.org/1999/02/22-rdf-syntax-ns#">
      <rdf:Description rdf:about=""
            xmlns:xmp="http://ns.adobe.com/xap/1.0/"
            xmlns:xmpGImg="http://ns.adobe.com/xap/1.0/g/img/"
            xmlns:xmpTPg="http://ns.adobe.com/xap/1.0/t/pg/"
            xmlns:stDim="http://ns.adobe.com/xap/1.0/sType/Dimensions#"
            xmlns:xmpG="http://ns.adobe.com/xap/1.0/g/"
            xmlns:dc="http://purl.org/dc/elements/1.1/">
         <xmp:CreatorTool>Adobe Illustrator 25.3 (Macintosh)</xmp:CreatorTool>
         <xmp:CreateDate>2022-01-24T15:06:53Z</xmp:CreateDate>
         <xmp:Thumbnails>
            <rdf:Alt>
               <rdf:li rdf:parseType="Resource">
                  <xmpGImg:width>256</xmpGImg:width>
                  <xmpGImg:height>104</xmpGImg:height>
                  <xmpGImg:format>JPEG</xmpGImg:format>
                  <xmpGImg:image>/9j/4AAQSkZJRgABAgEASABIAAD/7QAsUGhvdG9zaG9wIDMuMAA4QklNA+0AAAAAABAASAAAAAEA&#xA;AQBIAAAAAQAB/+4ADkFkb2JlAGTAAAAAAf/bAIQABgQEBAUEBgUFBgkGBQYJCwgGBggLDAoKCwoK&#xA;DBAMDAwMDAwQDA4PEA8ODBMTFBQTExwbGxscHx8fHx8fHx8fHwEHBwcNDA0YEBAYGhURFRofHx8f&#xA;Hx8fHx8fHx8fHx8fHx8fHx8fHx8fHx8fHx8fHx8fHx8fHx8fHx8fHx8fHx8f/8AAEQgAaAEAAwER&#xA;AAIRAQMRAf/EAaIAAAAHAQEBAQEAAAAAAAAAAAQFAwIGAQAHCAkKCwEAAgIDAQEBAQEAAAAAAAAA&#xA;AQACAwQFBgcICQoLEAACAQMDAgQCBgcDBAIGAnMBAgMRBAAFIRIxQVEGE2EicYEUMpGhBxWxQiPB&#xA;UtHhMxZi8CRygvElQzRTkqKyY3PCNUQnk6OzNhdUZHTD0uIIJoMJChgZhJRFRqS0VtNVKBry4/PE&#xA;1OT0ZXWFlaW1xdXl9WZ2hpamtsbW5vY3R1dnd4eXp7fH1+f3OEhYaHiImKi4yNjo+Ck5SVlpeYmZ&#xA;qbnJ2en5KjpKWmp6ipqqusra6voRAAICAQIDBQUEBQYECAMDbQEAAhEDBCESMUEFURNhIgZxgZEy&#xA;obHwFMHR4SNCFVJicvEzJDRDghaSUyWiY7LCB3PSNeJEgxdUkwgJChgZJjZFGidkdFU38qOzwygp&#xA;0+PzhJSktMTU5PRldYWVpbXF1eX1RlZmdoaWprbG1ub2R1dnd4eXp7fH1+f3OEhYaHiImKi4yNjo&#xA;+DlJWWl5iZmpucnZ6fkqOkpaanqKmqq6ytrq+v/aAAwDAQACEQMRAD8A9U4q7FXYqgNZ1/RtFt1n&#xA;1S7jtUduESsavI/8kUa1eRv8lQTkoxJ5IJp5H+aXnP8ANkXWlXvlDT7yw0V5Y4OdzBAr3FzPKEiV&#xA;4pC8scbFlVeapud+2ZOHHDfi5tc5Ho9Fg0bzvdRRvqPmJbOVlUyQ6bZwoEY0LKHuje8qdK096ZRx&#xA;RHIM6LA/PflLX/OMVx5c0PzFe6itvIG1S6vmtY9PSSMHjbH6naxu8tSCyj4U/a+Kgy/FMQ3I/X97&#xA;CQJ2BTX8t9F866f5Vg06112BrnSZZbO80++tDKsUiOT6ayxyxScCrq8bGvwkbU2Ec0omV1zTAGmT&#xA;nzL5i03/AI72iObdftahpTtexgfzPAUjuV/2KP8APK+AHkfmy4iOYTrSdZ0rV7QXemXUd3bk09SJ&#xA;g1GHVWHVWHcHcZCUSDRSCCjMil2KuxV2KuxV2KuxV2KuxV2KuxV2KuxV2KuxV2KuxV2KuxV2KuxV&#xA;2KuxVKfNXmjR/K+hXOtavIY7K2A5cBydmY8VRF7sxNP17ZKEDI0EE0wry/8AnHa+eCdP8lW0ianx&#xA;L3U2poqRWkIIX1WSORzMxJoiI3+sy97ZYODeTETvky/RPKOnaZcnUJ3fUtbkXjPq12Q85B6rGAAk&#xA;Mf8AkRgD5nfK5TJ26MgEL+ZfFfIms3DMqtZwfXIi7cQZbRluIhXxLxgD3w4fqCJckEmt3PnVRD5d&#xA;uJLby6drzXY6pLKe8FlUbU6SS/s9F+LdZcPBz59360XfJlWm6bYaZYw2NhAltaQLxihjFAB/Ek7k&#xA;ncnrlRJJsswHn/5kedLT8v8AXbLWvRe5XWo3t72yQ8OZtSpjuAxBUOiylD/MCv8ALmRhxHIK7mqc&#xA;uE2yPTvzK8jX1rbT/pm0tmuY1lWC6mjgkHID4WVyPiFabZWcEx0ZDIO9TvNN8tard/pLRNUgsdbP&#xA;2dQsZInMlDTjcRA8J0rtRtx+yQcIlICiNlIB5c0u1T809P8ALC/U/N8L22qqAYxaI0sNzGSR60LG&#xA;nEVHxI5DD/K65OOnM94cmJyiPNluia3pmt6XBqmmTCeyuQTFIAR0JVgQaEEEEEZROBiaPNsjIEWE&#xA;dkUuxV2Kvkw/85RfmVX+604f88JP+qubH8rBo8QuH/OUX5lV/utOP/PCT/qrj+VgviFPdC/5yx1p&#xA;LhRr+i201sTR3sGkhdR4hZWmDfLkPnkJaQdCkZHvXk/zp5e836QuqaJc+vBXhLGw4yxPSvCRP2T+&#xA;B7ZiTgYmi2g2q+a/NWj+VtCuda1eX0rO3HRRV3c7LGi92Y9Px2wQgZGgpNPmPzT/AM5NeftSunGi&#xA;GHRbGpESpGk8xX/LkmVlr/qqMz4aWI57tJyFLtG/5yM/NLT7hHuNQi1OBT8VvdQRAEd/jhWKT/hs&#xA;lLTQKiZfR/5Y/mpoXn3TGmtB9U1O2A+vaa7BnSvR0ag5xn+anzAzBy4jAtsZWv8Azd83ar5S8i3u&#xA;uaWsTXsEkCRidS6UklVGqAV7HxxwwEpUVkaD59/6Gi/Mr/fWnf8AIiT/AKq5mflYNXiFcv8AzlH+&#xA;ZIYEw6awBqVMElD7GkoOP5WHmviFO9G/5yy1tJFGt6HbXEZPxPZSSQMBXqFlM9flUZCWkHQpGR7V&#xA;5F/NLyd51hP6Hu+N6i8ptOuAI7hB3PGpDD/KQkZi5MUo82wSBZblbJ4r+en5w+a/JHmDT9O0WO1a&#xA;G5tPrErXEbSNyMjJQUdBSiZlYMImLLXORCj+R35zebvO3my70rWUtFtobCS6Q28TI/qJNFGKku4p&#xA;SU9sOfDGAsLCZJe4ZiNjsVYF+aWlx+b7RfIltT65eeneXV4QWSyt4pKrKwBXk8rKY40rv8R6Ll2I&#xA;8PqYyF7PNvy4/KrTPLemw+bNXtbbzLpN7G8d5BJaiVrOISfDdRxv6glA4fvKKGVTVa7g5GXMZHhG&#xA;xa4xrd7Db+Qvy3uII7i38uaPNBMoeKWOytWRkYVVlYJQgjMU5J95bOEJD528heR5LC20Wy8v6bb6&#xA;hrU6WsM8FpBHLFEv724mVkQFTHCjcTX7RUd8sx5ZXZJ2YyiOSPsPLmo+SbVIfLUbah5fi3l0SRgb&#xA;iKpq8lpM1OZYks0Uh3P2WHQxMxP6ufemq5IiT8zvK8g+raZMdR1uQcbfRY1ZLppTX93IsgX0uNDz&#xA;L04jc4+BLrsO9eMKU35eWevWlxN5vVNQ1K8QqirUw2KkbJaA9COrSH4nPXaigjMYn07D7/evBfNN&#xA;vKd7JfaDHBeqhvrFmsNRjCgJ69ueDELSgWQUkUfysMhkFHZMTYVdS0HymbeW41PTrA28as801zDC&#xA;UVaVZmZ1oBtvXBGcuhKmI6vHvPv5c2/mBLbWtDs4NC05prawsoWj9I3QurgRi49KMfukrKCARyZa&#xA;mg2rsMOfh2kbPNxsmO9xs9G/LXTo/L2lN5TmAXUNOLTPICeNxFM5ZLiOvb9hl/ZI+ROJqJcZ4+hb&#xA;sQoUzHMdtdirsVfnbm6cV7D5U/5xu1zzH5asNct9YtYI7+L1o4ZI5Cy1JFCR8sxp6kRNUzGO2Hfm&#xA;F+VvmjyJcwJq6Ry2t0WFre27F4nK0JU8grKwB6EfKuW48onyRKJCL/JbzpdeVvPunyiRhp+oSJZa&#xA;hFU8WjmbirkeMbEMO/Ud8jnhxRWBovRP+cstZum1TQtFDEWscEl66jo0juYlJ/1VQ0/1sp0kdiWe&#xA;QvI/y/8AJd35z802ugW1wlq04d5LmQcgkcalmIUEFjtQCuZOSfCLa4iyzrzx/wA42+cNAFvLo0h8&#xA;xW88ixMIITFNGzdC8ZaQBP8AL57d6ZTj1MTz2ZHGQ9Z/Jn8jY/Jki65q9wZ/MEkZQQwuwggRx8Sb&#xA;U9VvEn4R2G3LMfNn4thybIQpH/8AOR3/AJKfU/8AjNa/8n0yOm+sLk5PkLT7Rry/trNWCNcypCrH&#xA;oDIwWp+/NkTQaHuB/wCcTPMdDTXrMnsDFKMxfzY7mzw2H+b/AMgPzD8tWsl61vFqljEC0s9gzSFF&#xA;G/Jo2VJKeJCkDLIaiMkGBDANP1G+029hvrCd7W8t2DwXETFXRh3BGXEXsWD7I/Jj8z4/PXlwtdcY&#xA;9c08rFqMS0Aeo+CdR2WSh27MD2pmsz4uA+TkQlbx7/nLD/lM9I/7Zw/5PyZlaT6S15OaG/5xT/8A&#xA;Jh6j/wBsib/qJtsdX9PxXHzfVea9uQetata6RpN3ql2T9Xs4nmkCirMEFeKjuzHZR3OGIs0glLPK&#xA;WlXOnabNqGrUGs6m5vdWevIIxHwQK38lvGBGvjSvUnJTNmhyUBb+XSOvkLy6X/vH061keopRpIVd&#xA;hT2LYcv1H3ojySXVbq1/LiObUtz5PnkrPZJQvZXEp2a2QkcoZWPxRD7B+JfhqBOI8Tb+JBPD7ki8&#xA;refpPPHmi+v/AC1bfHZW8dpay6gAkdrFMfUmneONmaV5nRUVFYbR1LLXeyeLgjUmMZcR2Zuvk2G5&#xA;+PW9Qu9Wkb7UbytBbD2W3tzFGR4c+R98o8SuQpnw96Dh/Kj8v4tWm1RdHhNxMgjZGqYlod2SMnir&#xA;NsCf6msvzE6q0eHG0Y3lH6qfV0PUrvTZR0haR7q1b2aC4Z+I/wCMTIffB4l8xaeHuYTqf5ix+S/O&#xA;U0fmW1aN9Uto5Lk2JEsTSRMYorlFdkdRJGCjq1SOC05DfMiODxIeno1HJwndlum283mv6trOojjo&#xA;bcZ9J0utRKp+KO4uqbM3Rkj6L1NW+zTI8Gw59T+pmPVueSM82Av+hoRX97qltsKf7q5Tb17fusji&#xA;6+5M+nvX+aLGf0oNYsULalpJaaJF+1NAR+/t/f1EHw/5YU9scUv4TyKzHUdE2tLq3u7WG6tnElvc&#xA;IssMi9GRxyUj5g5WQQaLIG1XAl2KvztzdOK+2Pydv7GP8sPLqyXMSMtovJWdQR8TdanNXmB4y5Ee&#xA;TzH/AJye89eWtR0bT/Lum3kN9fxXgu7lrd1kWFY4pIwjMtRyYy/ZrtTftl+lxkGywyF4N5csZ7/z&#xA;BpljAC011dQQxgb/ABPIqj9eZkjQLUH0Z/zlB5E1DVNOsvNGnxNO2lo8OoRoKsLdjzWWg/Zjbly9&#xA;jXoDmDpcgBot2QdXzdpOralpGowalply9pfWzc4LiM0ZT0+kEbEHYjM4gEUWkF755G/5ymI9Kz85&#xA;Wddwp1SzX6OUsH4kofkuYeTSfzW0ZO975omu6PrunR6lpF3He2Mv2J4mqKjqp7qw7qdxmHKJBotg&#xA;NsA/5yO/8lPqf/Ga1/5Ppl2m+sMcnJ8l+W/+Uh0v/mLg/wCTq5sZci0B+gOadynYq+Tf+ckvIVl5&#xA;d80W+sabEIbHXBI8kCgBEuYiPV4gdA4dWp41zY6bJxCj0aMkaKUf84+eYptH/M7Tog5W21QPY3C9&#xA;m9ReUX0+qq5LURuCwO7J/wDnLD/lM9I/7Zw/5PyZDSfSU5OaG/5xT/8AJh6j/wBsib/qJtsdX9Px&#xA;XHzfVea9uecfmn5Z1HzP5g8r6Tp+qy6ZLC9zqE5QGSMx2xh4u8XJA7LKyBKmnxNl+GYiCSGEhaN8&#xA;0+b9e8s+XtQufMWnLNbRwsiatppDRF5P3cfq28rLJFydgPhaRfFsEMYkRRUyobofyZ5v1fVfKekL&#xA;5Y0SWa3jtYoP0jqUqWtsGhQRNxEfrzSUZCNkC/5WSyYwJHiKxlY2Sn8w/JvmDzUlh5d1PWhLqF7I&#xA;buO3tLdIrK0htxSSeQMZbiQ/vBGn71QS1abZPFkEbkAxnEnZMvyk/KP/AAKb65uL4X17ehY/3aFI&#xA;0jQk0FSSSScjnz8dbJx4+F6NmM2OxV2KsO87/lX5a843tre6k9xDc2yel6lu6qXiqWCNzVxszEgj&#xA;xzIw6mWMUGueIS5pd5RsfM2jQ3GjWF2l3JorLE+l3pISS3YcoJra4UM8XNBQq4dQ4YDiMnlMZbkc&#xA;+rGAI2HRD+Y/zJ0WLzJ5e03UrW6sb22vfWvIJUVhHztpoIzzRmV1Lzhgyk7Dx2yWPTSMZEbiv0sZ&#xA;ZRYBelZhOQknlhRaHUNHGyafcsbYf8u9yPXjA/yULtGPZcty71LvYQ2sJ3lTN2KvztzdOK7FVyI8&#xA;jqiKXdyFVVFSSdgABir6O/ID8ldS02/j82+Zbc208Sk6Tp8gpIrOCpmlX9khTRFO+9TSgzB1GcEc&#xA;IbYQ6l9BMqspVgCpFCDuCDmG2vGfzC/5xr8va5JLqHluVdF1JyWa2Kk2cjH/ACV+KL/Y1H+TmVj1&#xA;JGx3a5Y7fOfnDyJ5o8oX4s9dsmty5PoTj4oZQOpjkGx+XUdxmbDIJcmoghMfyw/MjVvI3mCK8t3a&#xA;TTJ2VNTsa/DLFXdgO0idVb6OhORy4hMJjKn0h/zkJcwXX5PX1zbuJIJ3s5IZB0ZHmRlYfMHMLTj1&#xA;ts+T5P8ALf8AykOl/wDMXB/ydXNhLkWgP0BzTuU7FXgX/OWt1CNI8vWpb9+9xPKq/wCQiKpP3uMz&#xA;NINy1ZHin5VwSzfmT5ZSIkMNStnJG54xyB2/4VTmVl+k+5rjzejf85Yf8pnpH/bOH/J+TKdJ9JZ5&#xA;OaG/5xT/APJh6j/2yJv+om2x1f0/FcfN9V5r25jliPrH5garOfs2OnWdtEd9mnlnml+9Viyw/SPe&#xA;x6oGSKPzpqrJKgl8paXKVaNgGj1C8jahqDs9vbsKeDyey7y+gf0j9iOfucIE8lXxkgUR+UL2T99C&#xA;oATTriQ09RANltpWPxjojHl9ktR+sf0vvXl7kd5cUXnmLzDqzfFxni0y1PhDaxB3p8555PuGRntE&#xA;D4pHMsjytk7FXYq7FXYqxjzFdWujeZNK1q4kWC1niuNPvpW2HFYmu4mP+p6EgH+tl+MGUTEe/wDQ&#xA;1yNEFA2/kvS/M10fMfmSw53c4C6dauzoba1WvphwhWsrci7VrxJoOmSOYwHDE+9iMYluUzD61oFF&#xA;k9XV9FX/AHd9u+t1/wAtR/vQg8R+8Hg/XIemflL7P2fcy3j5hAL5w8qx+cY+GqW5/SdlFGvFwV9S&#xA;KVjErEfZZhO2zeGWeDPg5cix8SPFz5sxzFbnYq/O3N04r61/Kz8rPy91T8vdC1DUNCtrm9ubYPPO&#xA;4bk7cjud812XLISIBb4xFPQ9F8leUNDkEukaNZ2MwFPXhgjWWlKU9QDn+OUynI8yyAATrIJYn5+/&#xA;M3yt5IsfX1a453ki1tdNhIa4l7Ahf2V8Wbb6dssx4jPkxlIBK/yk/Nqx8/WF2WhSx1SzlIksA/M+&#xA;g28cikheQ/ZbbYjtUZLNh4CsZWrfnbb6DL+WWuHWQnCKBnsmenJbwClvwJ35FyBt2r2xwXxilnyf&#xA;E+bRx3095+9b/oWHTPWrz+paX168eUXH/haZgY/70/Ful9L5y8t/8pDpf/MXB/ydXM2XItIfoDmn&#xA;cpJfNHnPyz5XsWvNcv4rSMCqRswMsntHGPjc/IZKEDLkgkB8bfmj+YV55680SarLGYLOJRBp9qSC&#xA;Y4VJPxEdXYks33dBm0xY+AU0SlZZ5/zi/wCTJ9Q81zeZpkIsdHRo4HPRrqZClB48ImYnwquU6qdC&#xA;u9ljG9qv/OWH/KZ6R/2zh/yfkx0n0lcnNDf84p/+TD1H/tkTf9RNtjq/p+K4+b6rzXtzw3RfzQsf&#xA;OPnXUvL+jNLYRa9JHGdRchJPq1rC/rCECpWSVRRCfsgk/aAzNlhMIgno0idmntllZWljZwWVnEsF&#xA;rbIsUEKCioiCiqB7DMMmzZbluoxrJp91GzRorxSKXmUNEAVIq6kgFfEeGI5oLyP/AJx1sfNkFnqr&#xA;6jcM+j+oqWcUjFj61A7SIrfEiNG6nenKoNMzNYY7VzacNvZMwm92KuxV2KuxV59+bXlufWToAtJH&#xA;N+l44t7bnwjk4QSXBrXZW/ccQ3blmZpMnDxXypozwuma6RqttqunQX9tURzLUowo6ODxeNx2ZGBV&#xA;h45izgYmi3RlYtrVdYsdLgWW6Yl5G4W9vGC8sr9kjQbs3+ZwwgZHZEpAPEdc/KrzTqvnBpSkVqms&#xA;PPfEPIHNvGJF5rJxABZfWWgWo99q5tserhHH38OzgzwSMve95jThGqVLcQByPU0HU5pi7Bdir87c&#xA;3Tivt/8AJn/yV3lv/mEX/iTZqs31lyI8mZ5Uydir5i/5yU/LXUbXW5POdhE02mXoQaiVqxgnUCMM&#xA;w7RuAu/ZvmMz9NlFcJackerxKw1C/wBPu47ywuZbS7iNYriB2jkU+KspBGZRAPNrR2uebfNGvLGu&#xA;tard6gkJrElxM8iqfFVY0B98EYAcgkklOfyy/LzVPO/mSDT7dGTT4mV9TvQPhhhrvv05vSiDx9gT&#xA;kcuQQFpjG30l/wA5C28Nt+T99bwII4IXs44ox0VEmQKB8gMwdN9bbPk+QEd43V0Yo6EMrKaEEbgg&#xA;jNk0Ju3nPzgylW13UGVhRlN3OQQex+PI8Ee5NlKp5555WlnkaWVzVpHJZifcnfJIZv8Alx+T/mnz&#xA;vdxvBC1loob9/qsykR0HURA09V/Zdh3IyrLmEPeyjEl9heVvLGkeWNCtdF0qL0rO1WgJoXdju0jk&#xA;AVZjuTmsnIyNlvAp85f85Yf8pnpH/bOH/J+TM7SfSWrJzQ3/ADin/wCTD1H/ALZE3/UTbY6v6fiu&#xA;Pm+q817c8qtfyl8nad+YM/1KKewlvLE3mmT200kb208UxS5MO/HiVniHFgwpUUoaZlHPIw3auAWy&#xA;oa7r3l7935lj+u6aNl1+0jI4iv8Ax92y1MdO8kdU8QmVcAl9PPuZWRzUNS1nTPNt5H5c0e8ivbA0&#xA;m1+5tpFkRbYH4bbkhpyuG+E77IH70yUYmA4j8EE8WwRtoE0jznc2pAjtNeiS5tabL9btEEUyAdKt&#xA;AsTKP8hvDIn1QvuTyPvZLlTN2KuxV2KuxVjiyDUfOTTAj6loEDRtJ+ybu64s4r0/dQoK/wCvl9cM&#xA;POX3D8fY185e5i2rebp9I8yV8sW41HT9YmSK7mo4s4r92EQdZlHpkvVfUUHcjrUnMiGESj69jH50&#xA;0yyVL07g/ezfStAjtJ2vruU3+rSLxlvpAAQp39OFBtFH/kjr+0Sd8xJ5L2G0W+MK3PNuM+t5mnbq&#xA;tnaRoD25XEjM4+YWFD9OJ2h7z9y/xJplbN2KvMv+hcfyn/6tk3/SVP8A815f+Zn3sPDDP9C0TTtD&#xA;0i10nTozFY2aenbxsxchQa05MST1ymUiTZZAI7Al2KrZI45Y3ilQSRyAq6MAVZSKEEHqDiry7zJ/&#xA;zjd+W+sXD3NtFcaPM55Mti6rET/xikWRVHsnEZkR1Mh5sDjCWaf/AM4r+Qbe4Et1e6heRqQfQaSK&#xA;ND7MUjD/AHMMkdXJHhh6toPl7RNA06PTdGsorGyj+zFEKVNKcmJqzMabsxJOY8pEmyzApS80eV9G&#xA;8z6NLo+sRNPYTsjSRq7RkmNg6/EhB6jGEzE2FItg/wD0Lj+U/wD1bJv+kqf/AJry38zPvY+GHf8A&#xA;QuP5T/8AVsm/6Sp/+a8fzM+9fDCbaL+Sf5X6PKs1roMEsyGokujJdb9jxmZ1FPYZGWeZ6pEAzZER&#xA;EVEUKigBVAoABsAAMqZN4qxLzl+VfkvzjfQX2vWb3FzbxehE6TSxUTkWpRGUdWOWQyyjyYmIKzyf&#xA;+U3kjyhqcup6FZyW93NC1tI7zSygxs6uRR2YfajXfDPNKQoqIgMwypkxTz9fWmippfme5lEMOlXS&#xA;x3bGtTa3g9CUBRu3FmSWg3+DLsQ4rj3sJmt2k8w6r5mjA8rf6Npb7N5guIzRhWhFnA/EyH/ix6IO&#xA;3PHgEfq593614ieTG/Jf5YafpGqeYm0XU76xvLa9jtornlFIGjNnb3PGWJo/TcepcN2BpShHXLcu&#xA;ckCwOX6WEcdE0neuwea3sfqup2a6gsLrPZ6vpNI7mCaPeOU2k7b0/aCStyBI40OQgY3YNeR/Wylf&#xA;VvQPzQ8vXVlOus3Uelapp4C6hb3Ia3qenqRJMEkKv2UjkOh92enkDtuCiOUdWW2F/ZahZxXljOlz&#xA;aTjlFPEwZGHTYj3yiUSDRbAbV8CXYq8P/OPzz5o03zZHYaZqL2lrbwRycIGFTI5JPqUr7fCe29N8&#xA;2uiwQlCyLcLUZZCVAsw/LnQrbVfKdle6rO1+ZjJLNZMw9D1mkYu0yL/eyMd29UtTsBmNqchjMgbf&#xA;j8cm3DG42WbXumWV5ps2nTRgWk0ZhaNPhopFBxp9kjt4ZixmQb6t5iCKQXl/UZ5LKa21Bx+kNMcw&#xA;Xrn4Q/EBkmFf2ZIyG9jUdsnljvY5FjCW2/MLvLgaW0l1FwQ+pzNdAHYiIgJAKHp+5RCR41xy7Gu7&#xA;8H7VhyvvTXKmbsVYLpv52flzqMN1Lb6k4NpbPevHLBNG7W8Vebxh0HqUodlqdsuOCQY8YZDqHm/R&#xA;LBdNM8khOrhzp6RxPI8nCEzkBVBNSi7Dx2ysQJvyTaAH5l+S2ttKuY9QEkWspLNZFEdj6VupaaSR&#xA;QKxrFxPMvSlMl4Ut/JeILNM/NHyVqmktqtjfNLZpcwWbn0ZUdZbpxHCCjqrUcsKNSlMTikDSOIKW&#xA;t/m35D0bVJ9MvdQY3NpT66YIJ547fl09aSJHRfcV274Y4ZEWpkE3vvOPl2x1vStEubsJqOtK76fF&#xA;QkOI15ElgKLX9nl1OwyAgSCe5NojTdf0zUb/AFKwtJC9zpMqQXyFWUK8iCRQCRRvhbtiYkC+9bQH&#xA;mLz95T8u6lY6brF8La71De3Tg7jjyCBnKKwRS54gtQVwxxmQsKZAIbzL+Zvk3y5qI03UbxzqHp+s&#xA;9rbQzXMkcf8APIIVfgP9bDHFKQsIMgFl1+afka1ikmn1ArDHDZ3HqLBPIGj1AE2xURozHmF6U274&#xA;jFJeILT+a/kUR2ksl/JDDe3QsYJbi2ubdTOVDUPrRxkLRh8R+H3x8GS8QTW884eXbHUL6wvLtbeb&#xA;TbRb+9aQFY0t3YorcyOJ+JTsN8iIEi02kVn+cn5fXcVzKt/LFFa27XjyTWl1GGt0ZVaSPlH8YBdf&#xA;s775M4ZBHEFVvzc8hrplzqbX0yWdoYxK8lndxEtMSsaxrLEhkLEHZK074+DK6XiDJdH1fTtY0y31&#xA;PTZhcWN0vOCYAiorTowBBBFCCMrkCDRZAozArsVS/XvL+j6/pkmmavbLd2MpUvExZd1NQQyFWUg9&#xA;wclCZibCCAeaUeS5DpqSeUrmi3GjoosWpx9ewO0Eo8WT+7k/yhX9oZPLv6u/72MNtkV5c/47Hmn/&#xA;ALakf/dMssE+Ufd+kpjzP46J7lbJ59+cnlKDzFpOmQJL6Oom+igs24hg3rGkgboaJGGk2/lzL0mX&#xA;gJ7qac0OIBEaF5Z1jyPoKW1pq9nNplsDJONRjaAKzGrss6OwRSezI3zwTyDLKyDfksYmA5oMed/P&#xA;97rWmWun6JaR2N0ZA13LNN6UwjQMzRmSKCZFWvX0mDdtsl4GMRJJNsfEkSKDJn0rzPqA4ahqiWNu&#xA;ftwaYhSQjwNzKWYf7BFPvlPHAchfv/U2cMjzKA8q6Fo8t9d6lBaRixgka10sMOdfSetxclmqWeWZ&#xA;acySSEU1yeXJIAC9+v6AxhEXaH8/WOuaVaTeYPKtIL5T6mrRjh6U0EalmkeNxxLrQfEPi47b7ZLT&#xA;SjI8M+XRGYEDiinUU3nb0FLW2mPKVqStxOqE+37l9sqIx3zl8h+tnc/Jgfnm689tr0FvY6dGZLi2&#xA;SHU4rFnukmhaRuKXDPFEYl+2AfAt8WZ2mji4bJ67Xt8t3FzGfFsPk9XUUUCgG3QdBmrc5vFXYq8C&#xA;0P8AJvVY/wAtpNQ1Jr258yQ6Re2WmaLJwWO2M5kBVFUVZn5dS3f5UzJZhx0OVtQjsyG1/LXU9L8w&#xA;eRtQhvdX1JbaVm1GG/u2uYbUGzZfgRqBPjPHbIHKCJDZlw8kx0PyPFp3nH8wdTXQxNDfRQppcRIR&#xA;LlZrb1LuGNmNEEtwfjPSuRlkuMRagblhnl/QfO8+nXdjb6Pqen+XIb7R5tO0nUpRPJbyRXaSXQt2&#xA;YK/1eNBty+fWuWylG+YvdiAWSeXrjzP5FfW9Fk8qX2uPf6jc31hqVl6TQ3KXLcgLqR2BiZfsksD9&#xA;25hICdG6ZCwkPm7yT+ZnmHX9Y81WVla2smmzW40K2u/UN4F0z98ptCn7sLPK7/b6+3XJQnCIA/G6&#xA;CCd2UeVNT13S/Nuv3F55Y1VofMN1Z3EE8McLRQg2saOJi8qMPTaobip6ZCYBiNxskc0N+dFhrsuo&#xA;2F35f0HUZ9ehgK6b5h0yYIYZTKK29zGQQ0JX4iW27fzYcBFbnbuWbelv5u8leZNavtR8vXWvjzEL&#xA;a5+v6SscjpcxwCOS3lR3RliV68G6AH6ADwyAo1S7hj/n3y35q1K81LVBol9Al3H5flNtY0e4iNuz&#xA;vcxwOlAZIOVAwoK75PHIChfeggo648tt5ti8s6Vc6Pr8mkWN9dDU5vMVDdGOe2fjJ6nOQkK5AU9j&#xA;TAJcNmxfktWlFx+Wf5j3UnmXTL1RqJtrCxt9Gv5jRL+Gyu/rMcUxLf3hT4GrTcdf2skMsdijhLKf&#xA;NuveZPNnkvWtIt/Jmp2E/wCj5AZLpYwPXDIBDbKhZpgwr8QA6dMrhERkDYZE2OSVrCLnyPe6RP5W&#xA;82aysctvcSLrEoS5jIonOwl5yNyipyEYAr8q5L+K7iPcjozr8pk82J5QjHmb6wLv15fqa3rK92tp&#xA;X9yLllArJStSd8qzcPFsyjdbsyypk7FXYqx7ztZxrpT65HN9U1DQ45by2uwOVEROUsTrtyjlVaMv&#xA;yI3Ay3Ed+HoWExtfc8y8jfnpHeeZ7uDUdNNtaarL66Pb+pcSRyJbpEFKInOQMsA+yta9qdMzNo6j&#xA;seTRDPvu9OPnO2av1fStVuOtKWM8Vaf8xAhzD8E94+bfx+Reeap58803X5m2GkyaamnwQSN+jhfK&#xA;QVeeMxC4kKOUf7TKqqw68a1zMjgiMRN3300HIeOqek2Xle3WdL3VZ31fUEPKOa4A9KJv+KIF/dx/&#xA;61C3ixzDOU8hsG8Q792rz4/OWlJ2isb6Vtu5ltUXf3q33Yx+g+8fpU/UPcf0MZ/NzzD5p0y1sbby&#xA;4x9e69Zrr0Y/VnWJAo5KvF+K/Hu3Y0zI0eKEiTNq1E5CuFlvlUAeWNJpGkI+pwH04jyRaxqaK3cZ&#xA;jZvrPvbcf0hMZ4Y54JIJRyilUo6+KsKEZAGjbMhjOleYJIdAsLGIC810K1mLYGn7y1YwSyzEV4Rq&#xA;yVY/QKkgZkTxXInlHn892mM/SB/Enek6YLGFzI/r3lw3q3lyRQySEU2HZVHwqvYZTOfEfJsjGkdk&#xA;GTsVdiryLQPzV89HRNG80a7penHyxq86WzS2Ek/1q2MsphSSWOUFWX1B0Vif1ZkyxRsgHcMBI804&#xA;1D80L6P8xn8r2lrD+jgosl1SbnwXVpYXuIYGKn7BRACAK1yIxem/xS8W9ITT/wAwPPEN35il12PS&#xA;ItK8qmmqPb/WRLJW39dBBzJWpLKvxDCccdquyvEU/wDyv873/mvRZ5NWs107W7Gb0b6xXkOKyIs0&#xA;LgMSwDxyDr3ByGXGInbkmJtiOofnhqOl3mlPe6akul3F1qcOpy26yNJBb2F19WWcCpqBUNJt8qZY&#xA;MAN79zHjRPm/839Q0qW9+ofo/wCqQ6rp2n29/dGUwfV7/TzeGd2iapAPQr+zghhB5936UmSW+aPz&#xA;l806FpemXqy6DeLf293eJcRtdLDLHbPHGsUHL4jKzO2xFNuuShhBJ5oMyGTed/zK1nQvKOjahZ6R&#xA;z8xawqyJos5PKNI4DcXXLiVJ9JFp41I27ZXjxAyIvYMjKgg/Of5s3+lyeWLvSobMaFrsQuJdU1Fp&#xA;kgAYKUg9WFZFikKkmrgjbphhhBu+YQZIvUvMn5mx+boNDsU0N4dQhubywnkN2aW8EiKokKmnNlmX&#xA;7Ip1xEYcN7rZtJ9A/ODzBqP5lS+V3sbOeyGoahY0tWl+twRWLELcTq1Y+D7DY7mvsDKWECFqJb0m&#xA;i/mbqx/JyDzz9Vt/0hL6PK2+P0R6t8tqafFy+y1evXI+EOPhXi2ttfN/5i+YNV1ceT7LSo9I0W7k&#xA;0959Va49W6uYKet6QgoqIpNAWrXr40eCIA4rsrZPJbrPmn80bLzTo+hxW+iqddW6ktDKbpjEtpGk&#xA;jrMUNC37yg4imMYQIJ32Uk2nPl7zjqOo6Z5rubiCFJvL+oXljAsfLi62sMcis9STUs5rTIygAR5p&#xA;BYFrf55eZrC50NLfT7G6bU9O0q9fT+Uwu55dSB5RWgHJaJx6v0qOuWxwA38WJmU/1z8x/MMXn+88&#xA;q6dc6LaSRG1Syj1I3ImuHuYw9E9Gq7MadshHEOGzaTLenpuUM1O5toLm3ltrhBLBOjRzRsKqyOOL&#xA;KR4EHCDW6kMG038l/KekXTX+jSXNnqiMXsrwyer6BIIKiNhxdGB4sHqadx1zJlq5SFHk0jCBuE7T&#xA;zNc6YRB5mgFnvxTVYQzWMngWY1a3PtJt4M2V+HxfTv5df2suOuancxaZqnmqWznEd1bT6SPUj+0r&#xA;I9waEEf6uxGEExhf9JTRlXkqWd3d6DcRabqk73GnTMI9O1WY1cMdlt7lv5v5JP2uh+L7QMRMWOfU&#xA;fqUHh2PJZqep2un+Zbm+umIistMQhRu7NcXDBURe7O0IUDuaYYQMoADrL9CJSqV+SM8vaZdxtNqu&#xA;pgfpe/oZEBqLeFd47ZD4JWrEfaap8MjkmPpH0j8WyhHqebFZ/P2geTNXu/L940stskizWnoKH+rp&#xA;cVdoZKspojfEtK/CwHbMoaaWWIkP7Wg5o4zwlkieYLrVkVfL0JeFwCdVuUdLdQe8aNweY/Ki/wCV&#xA;mP4Qj9fy6/sbeMy+n5rPKPkqx8tNfSQXM11NqEiyTyzlSaryI+yB1Lkk4c+oOSrFUuLCIX5sizHb&#xA;XYq7FXYq800P8nLmzstJ0jVPMc+peXtGlW4ttIW3it0eVHMiGaRS7yKrty4k0y+Wa7IG5YCKlJ+Q&#xA;fl6W0mupb2c+a5bw6iPMIaQFbj1/WVltfV9HYfB0r74fzB+HcvAmes/lRBqw1mG51J1s9f1C0vtT&#xA;t0j484bVFVrYMH5ASMity6jIxzVW3JJijfKv5ZaL5U8w3WpaBJJaWF9apBdaYzSTq00Tlkn9WaR3&#xA;BCMU49ME8pkKKiNKGl/lbZWWq2l9Ld/Worb9KCS1kiXhKurTeq6tVjsn2enxYnLY+X2KIpZpH5I6&#xA;XpMkYstRlFrBrdvrdvA6cyi2sUkSW3MtUqFkoG6gDvkjnJ+VIEE/81/l3pHmjV7S91RvVtbe0urK&#xA;SyKghxdcPjD1qrIY6rQdchDIYjZJjaRj8l9P1CbTm816nP5gg0qyNjYwuZLUisnL1nkglDO/phYz&#xA;2IFTvk/HI5CrRwd6EvvyW1dvLqeXNN83XNjoi/WYWsWtknRrS5l9URHm4bnHuBJXp0A3qRnF2Ruv&#xA;AzCz8l2lnq2iX1vcOItD02TS4IHHIvG/ogOz1HxAQDtvXKjOwfMsqSFPyjtrfUP0vY6k1rraaxd6&#xA;vDfrCCfSvWrNZyLyHqREbVqPEUyfjbVW1I4UHF+TV2kMWiN5knfyTBdC7i8vG3j5UWX1lgN3y5mI&#xA;Sb8eP098Pjda9Xejh+SOu/y21+11bU7zyr5pl0G01mc3eoWJtIbtPrDgCSWFpGUxNJSrdd/owDKK&#xA;Fi6Tw9yfXflFbrzB5c1mS8dpfL8N1CEZQxnN3FHGXd6ihHp16b1yAnsR3ppjut/lZq1zqGsto3me&#xA;bR9I8xN6ms6YttFPzd0EcrwyuwaEyoKMaH9VJxyihYshBiqar+TugagtxGJpIEFhY2OlvGP3tk+m&#xA;lzbzxS15ch6lD02774jMQpisk/L/AM8xa1e6tpfnGOyn1GK1S+DaXFN6klrF6Qk+KYceW5oB3x8S&#xA;NUR9q8J73oOUsnYq7FXEAggioOxBxVhyflfosHmS417Trq60y5nTgIrMxRxoTTkQjI6kNSpVgRXf&#xA;Mn81Ix4SAfe0+CLsbI+60TzNLay2kmpWmoWkylJYb6zJLKRShaGWJf8AknkROAN0QfIsjGXexbSP&#xA;JvnyHzO93fS2lzZWcUaad6zyOlYy5hNB+8YwiaRQZDXfqeuZE8+MwoXZ5/jzaY458VlmJsPNk+02&#xA;rW9svhaWnx/8HPJMv/JPMbigOhPvP6m6pd7CPM35LPqusHUINXes/H6210gkkLABeSmP013A+zQZ&#xA;mYe0OGNGLj5NJxG7ekaXp8Gm6ba6fASYbSJIYy3UrGoUE++2a+cjIknq5UY0KRORZOxV2KuxV2Ku&#xA;xV2KuxV2KuxV2KuxV2KuxV2KuxV2KuxV2KuxV2KuxV//2Q==</xmpGImg:image>
               </rdf:li>
            </rdf:Alt>
         </xmp:Thumbnails>
         <xmpTPg:MaxPageSize rdf:parseType="Resource">
            <stDim:w>470.600006</stDim:w>
            <stDim:h>187.100006</stDim:h>
            <stDim:unit>Pixels</stDim:unit>
         </xmpTPg:MaxPageSize>
         <xmpTPg:NPages>1</xmpTPg:NPages>
         <xmpTPg:HasVisibleTransparency>False</xmpTPg:HasVisibleTransparency>
         <xmpTPg:HasVisibleOverprint>False</xmpTPg:HasVisibleOverprint>
         <xmpTPg:PlateNames>
            <rdf:Seq>
               <rdf:li>Cyan</rdf:li>
               <rdf:li>Magenta</rdf:li>
               <rdf:li>Yellow</rdf:li>
               <rdf:li>Black</rdf:li>
            </rdf:Seq>
         </xmpTPg:PlateNames>
         <xmpTPg:SwatchGroups>
            <rdf:Seq>
               <rdf:li rdf:parseType="Resource">
                  <xmpG:groupName>Default Swatch Group</xmpG:groupName>
                  <xmpG:groupType>0</xmpG:groupType>
               </rdf:li>
            </rdf:Seq>
         </xmpTPg:SwatchGroups>
         <dc:format>image/svg+xml</dc:format>
      </rdf:Description>
   </rdf:RDF>
</x:xmpmeta>





















<?xpacket end="w"?>
	</metadata>
<g>

		<linearGradient id="SVGID_1_" gradientUnits="userSpaceOnUse" x1="28.8562" y1="161.5938" x2="161.1375" y2="29.3125" gradientTransform="matrix(1 0 0 -1 0 188)">
		<stop  offset="0" style="stop-color:#22305D"/>
		<stop  offset="1" style="stop-color:#417ABD"/>
	</linearGradient>
	<path class="st0" d="M103.4,0.8c-2.2,0-4.1,1.6-4.4,3.7c-0.8,0-1.7-0.1-2.5-0.1C89.1,4.4,82,5.3,75.2,7c-0.7-1.7-2.3-2.8-4.2-2.8
		c-2.5,0-4.5,2-4.5,4.5c0,0.3,0,0.6,0.1,0.9C56,13.3,46.3,19,37.9,26.2c-1.2-1-2.7-1.7-4.4-1.7c-3.7,0-6.6,3-6.6,6.6
		c0,1.7,0.6,3.2,1.7,4.4c-6.3,7.3-11.4,15.6-15.1,24.7c-0.2,0-0.4-0.1-0.6-0.1c-1.9,0-3.4,1.5-3.4,3.4c0,1.2,0.7,2.3,1.7,2.9
		c-2.8,8.7-4.4,18-4.4,27.6c0,0.8,0,1.6,0.1,2.4c-2.6,0.4-4.7,2.6-4.7,5.4c0,3,2.4,5.5,5.5,5.5h0.1c1.1,7.6,3.2,14.9,6.1,21.7
		c-0.9,0.6-1.5,1.6-1.5,2.8c0,1.9,1.5,3.4,3.4,3.4c0.3,0,0.7-0.1,1-0.2c3.8,7.4,8.6,14.2,14.2,20.2c-0.9,1.1-1.5,2.6-1.5,4.2
		c0,3.7,3,6.6,6.6,6.6c1.8,0,3.4-0.7,4.6-1.9c7,5.6,14.9,10.1,23.4,13.4c0,0.2-0.1,0.4-0.1,0.6c0,1.9,1.5,3.4,3.4,3.4
		c1.3,0,2.4-0.7,2.9-1.8c6.9,2.1,14.2,3.4,21.7,3.8c0.3,1.6,1.7,2.8,3.3,2.8c1.6,0,3-1.2,3.3-2.7c8.3-0.2,16.4-1.5,24-3.9
		c1,2.3,3.4,3.9,6,3.9c3.7,0,6.6-3,6.6-6.6c0-0.7-0.1-1.4-0.4-2.1c5.1-2.4,9.9-5.3,14.4-8.7c0.6,0.5,1.4,0.8,2.2,0.8
		c1.9,0,3.4-1.5,3.4-3.4c0-0.6-0.2-1.1-0.4-1.6c6.1-5.3,11.6-11.3,16.1-18c0.6,0.3,1.3,0.5,2,0.5c2.5,0,4.5-2,4.5-4.5
		c0-1.5-0.8-2.8-1.9-3.7c6.2-11.4,9.9-24.3,10.6-37.9c3.4-0.2,6.2-3.1,6.2-6.6c0-3.6-2.9-6.5-6.5-6.6c-1.8-18.5-9.2-35.4-20.6-48.9
		c1.1-1.2,1.8-2.8,1.8-4.5c0-3.7-3-6.6-6.6-6.6c-1.7,0-3.2,0.7-4.4,1.7c-13.1-11.6-29.7-19.5-47.9-21.8
		C107.8,2.7,105.9,0.8,103.4,0.8z M168.3,139.3l-19.3-0.7c-0.3-1.6-1.7-2.8-3.3-2.8c-0.8,0-1.5,0.3-2.1,0.7l-8.2-6.8
		c0.6-1,1-2.2,1-3.5c0-0.8-0.2-1.5-0.4-2.2l19-9.3c0.6,0.8,1.6,1.3,2.6,1.3c0.3,0,0.7-0.1,1-0.2l11.4,20.6
		C169.1,137.3,168.5,138.2,168.3,139.3z M111.7,154.7c0,1.2,0.5,2.4,1.3,3.2l-16.1,22c-0.1-0.1-0.3-0.1-0.4-0.2l2.9-36.3
		c1.5-0.2,2.6-1.4,2.8-2.8c8.7-1,16.8-4.4,23.4-9.5c0.3,0.2,0.5,0.5,0.9,0.7l-9,18.7c-0.4-0.1-0.8-0.2-1.3-0.2
		C113.7,150.2,111.7,152.3,111.7,154.7z M93.5,180.2l-22.1-21.3c0.5-0.7,0.8-1.6,0.8-2.6c0-0.5-0.1-1-0.2-1.4l24.4-12.6
		c0.4,0.5,1,0.8,1.6,1l-2.9,36.3C94.5,179.7,93.9,179.9,93.5,180.2z M36.8,152.8l-0.4-30.1c1-0.2,1.9-0.8,2.4-1.7L69,132.8
		c-0.2,0.5-0.3,1.1-0.3,1.6c0,2.1,1.3,4,3.2,4.8l-3.6,12.6c-0.2,0-0.4-0.1-0.6-0.1c-2.4,0-4.3,1.9-4.5,4.2l-20.5,2
		C42.1,155.2,39.7,153.1,36.8,152.8z M13.2,101.9c0-1.5-0.6-2.8-1.6-3.8l18-23.3c0.5,0.3,1,0.4,1.6,0.4s1.2-0.2,1.6-0.4L46.7,91
		c-1.1,0.8-1.8,2.1-1.8,3.6c0,1.8,1,3.3,2.5,4l-10.3,16.9c-0.4-0.2-0.9-0.3-1.4-0.3c-1.1,0-2.1,0.5-2.8,1.2L12.7,104
		C13,103.4,13.2,102.6,13.2,101.9z M34,37.8c1.5-0.1,2.9-0.7,3.9-1.6l19.2,19.9c-1.1,1.2-1.7,2.7-1.7,4.4c0,0.6,0.1,1.1,0.2,1.6
		l-21.5,7.5c-0.5-0.7-1.2-1.2-2.1-1.5L34,37.8z M104.9,9.5l8.3,14.8c-1.1,0.8-1.7,2.1-1.7,3.5c0,0.9,0.3,1.7,0.7,2.4L98.7,42.6
		c-0.7-0.6-1.5-0.9-2.5-0.9c-1.1,0-2.1,0.5-2.8,1.2l-15-10.7c0.2-0.4,0.3-0.9,0.3-1.5s-0.2-1.2-0.5-1.7l22.4-20.2
		c0.8,0.6,1.7,1,2.8,1C103.9,9.8,104.4,9.7,104.9,9.5z M156.8,68.2c-1.4,0.1-2.7,0.8-3.5,1.8L135,61c0.2-0.6,0.3-1.2,0.3-1.8
		c0-1.1-0.3-2.1-0.9-3l21.4-19.3c0.9,0.8,2,1.4,3.2,1.6L156.8,68.2z M155.2,110.4c-0.6,0.6-1,1.4-1,2.4c0,0.3,0,0.5,0.1,0.8l-19,9.3
		c-0.2-0.3-0.4-0.6-0.6-0.8c5.8-7.6,9.4-16.9,9.8-27c0.1,0,0.3-0.1,0.4-0.1L155.2,110.4z M102.1,139.2c-0.4-1.4-1.7-2.5-3.2-2.5
		c-1.7,0-3,1.2-3.3,2.8c-5.9-0.1-11.5-1.3-16.7-3.4c0.2-0.5,0.3-1.1,0.3-1.6c0-2.9-2.3-5.2-5.2-5.2c-1.6,0-3.1,0.8-4,2
		C59.4,124,52,112.4,50.3,99c2.1-0.4,3.6-2.2,3.6-4.4c0-2.3-1.7-4.2-4-4.5c0.5-8.9,3.6-17.2,8.4-24.1c1.1,0.7,2.3,1.1,3.7,1.1
		c3.7,0,6.6-3,6.6-6.6c0-1.5-0.5-2.9-1.4-4.1c7-5.7,15.7-9.3,25.3-10.1c0.4,1.6,1.9,2.8,3.6,2.8c1.8,0,3.2-1.2,3.6-2.9
		c9.5,0.7,18.3,4.2,25.4,9.8c-0.6,0.9-0.9,1.9-0.9,3.1c0,3,2.5,5.5,5.5,5.5c1.2,0,2.2-0.4,3.1-1c5.5,6.9,9.1,15.3,10,24.5
		c-1.6,0.3-2.8,1.7-2.8,3.4c0,1.8,1.3,3.2,3,3.4c-0.5,9.7-3.9,18.7-9.4,26c-1.1-0.8-2.4-1.2-3.8-1.2c-3.6,0-6.5,2.9-6.5,6.5
		c0,1.4,0.5,2.7,1.2,3.8C118.3,134.9,110.5,138.2,102.1,139.2z M69.7,152.3l3.7-12.7c0.2,0,0.4,0.1,0.7,0.1c1.8,0,3.4-0.9,4.3-2.3
		c5.4,2.2,11.2,3.5,17.3,3.6c0,0.1,0,0.1,0,0.2l-24.4,12.6C70.9,153.1,70.3,152.6,69.7,152.3z M39.5,119c0-1.1-0.5-2.1-1.2-2.8
		L48.8,99l0,0c1.6,12.5,8,23.5,17.4,31.1l-26.8-10.5C39.5,119.5,39.5,119.2,39.5,119z M34,73.8c0.5-0.6,0.7-1.3,0.7-2.1
		c0-0.2,0-0.4-0.1-0.6l21.5-7.5c0.3,0.6,0.7,1.1,1.1,1.6c-5.1,7.1-8.2,15.7-8.8,25c-0.2,0-0.3,0.1-0.5,0.2L34,73.8z M38.9,35.2
		c0.8-1,1.2-2.2,1.3-3.6l31.7-0.2c0.2,0.9,0.7,1.6,1.4,2.1l-9.1,20.8c-0.7-0.2-1.3-0.4-2.1-0.4c-1.4,0-2.8,0.5-3.9,1.3L38.9,35.2z
		 M117,32.3l9.8,22.3c-0.2,0.1-0.4,0.3-0.6,0.5c-7.3-5.8-16.4-9.5-26.3-10.1c-0.1-0.4-0.2-0.8-0.4-1.2l13.6-12.4
		c0.8,0.6,1.8,1,2.8,1C116.3,32.4,116.7,32.3,117,32.3z M92.5,45c-9.9,0.8-18.9,4.6-26.2,10.5c-0.3-0.2-0.6-0.4-0.9-0.6l9.1-20.8
		c0.2,0,0.5,0.1,0.7,0.1c0.9,0,1.7-0.3,2.3-0.9l15.2,10.8C92.6,44.4,92.5,44.7,92.5,45z M144.4,88.2c-0.9-9.6-4.7-18.4-10.4-25.5
		c0.1-0.2,0.3-0.3,0.4-0.5l18.3,9.1c-0.1,0.4-0.2,0.9-0.2,1.4c0,1.3,0.6,2.5,1.5,3.3l-8.9,12.4C144.9,88.4,144.6,88.3,144.4,88.2z
		 M153.6,32c0,1.5,0.5,2.8,1.3,3.9l-21.4,19.3c-1-0.9-2.3-1.4-3.7-1.4c-0.6,0-1.2,0.1-1.7,0.3l-9.8-22.3c1-0.6,1.8-1.6,2-2.8
		L153.6,32z M156.4,109.6l-10.2-15.5c0.6-0.6,1-1.5,1-2.5c0-0.9-0.4-1.8-0.9-2.4l8.9-12.4c0.6,0.3,1.2,0.4,1.9,0.4
		c1.3,0,2.5-0.6,3.4-1.5l19.3,13.2c-0.5,0.9-0.8,2-0.8,3.1c0,1.3,0.4,2.4,1,3.4l-20,14.9c-0.6-0.5-1.4-0.8-2.2-0.8
		C157.2,109.4,156.8,109.5,156.4,109.6z M180.4,87.7l-19.3-13.2c0.2-0.5,0.4-1.1,0.4-1.8c0-2.1-1.4-3.8-3.3-4.3l2.3-29.8
		c1.3,0,2.5-0.5,3.5-1.2c11.1,13.3,18.5,29.9,20.2,48C182.7,85.7,181.4,86.6,180.4,87.7z M153.7,30.6l-33.3-3.1
		c-0.2-2.3-2.1-4.1-4.5-4.1c-0.5,0-1.1,0.1-1.5,0.3l-8.3-14.8c0.7-0.6,1.3-1.3,1.5-2.2c18,2.3,34.3,10,47.2,21.5
		C154.3,28.8,153.9,29.6,153.7,30.6z M96.5,5.8c0.8,0,1.7,0,2.5,0.1c0.1,0.7,0.3,1.3,0.7,1.8L77.3,27.9c-0.6-0.4-1.3-0.7-2-0.7l0,0
		l-2.6-14.4c1.7-0.6,3-2.3,3-4.2c0-0.1,0-0.2,0-0.3C82.2,6.7,89.2,5.8,96.5,5.8z M71,13.2c0.1,0,0.1,0,0.2,0l2.6,14.4
		c-1,0.5-1.8,1.4-2,2.5l-31.7,0.2c-0.2-1.1-0.6-2.1-1.2-3c8.2-7.1,17.8-12.7,28.2-16.4C67.9,12.2,69.3,13.2,71,13.2z M29.6,36.5
		c0.8,0.6,1.8,1,2.9,1.2l-1.9,30.5c-0.9,0.2-1.7,0.6-2.2,1.4l-12.3-5.4c0-0.2,0.1-0.4,0.1-0.6c0-1.2-0.6-2.2-1.5-2.8
		C18.4,51.9,23.5,43.7,29.6,36.5z M12.5,66.9c0.1,0,0.2,0,0.3,0c1.2,0,2.2-0.6,2.8-1.5l12.2,5.4c-0.1,0.3-0.1,0.5-0.1,0.8
		c0,0.8,0.3,1.6,0.8,2.2l-18,23.4c-0.7-0.4-1.4-0.6-2.2-0.7c0-0.8-0.1-1.6-0.1-2.4C8.2,84.6,9.8,75.4,12.5,66.9z M9.2,107.1
		c1.1-0.3,2.1-1,2.7-1.8l20.2,12.4c-0.2,0.4-0.3,0.9-0.3,1.3c0,0.5,0.1,1,0.3,1.4l-13.9,9.1c-0.6-0.6-1.5-1-2.4-1
		c-0.2,0-0.4,0-0.6,0.1C12.4,121.8,10.3,114.6,9.2,107.1z M19.2,131.8c0-0.4-0.1-0.8-0.2-1.1l14-9.1c0.5,0.6,1.3,1,2.1,1.1l0.4,30.1
		c-1.3,0.1-2.4,0.6-3.4,1.4c-5.5-5.9-10.3-12.6-14-19.9C18.7,133.7,19.2,132.8,19.2,131.8z M41.7,163.1c0.7-1,1.1-2.3,1.1-3.6
		l20.5-2c0.4,1.7,1.8,3,3.6,3.3l-0.1,14.1c-0.9,0.2-1.7,0.7-2.2,1.4C56.3,173,48.6,168.6,41.7,163.1z M70.8,178.2
		c0-1.6-1.1-2.9-2.5-3.3l0.1-14.2c0.8-0.1,1.4-0.4,2-0.9l22.1,21.3c-0.2,0.3-0.3,0.6-0.4,0.9c-7.4-0.4-14.5-1.6-21.3-3.7
		C70.8,178.3,70.8,178.3,70.8,178.2z M98.6,182.2c-0.1-0.5-0.3-0.9-0.6-1.3l16.2-22.1c0.6,0.3,1.3,0.5,2,0.5c0.5,0,1.1-0.1,1.6-0.3
		l7.1,12.6c-1.7,1.2-2.8,3.2-2.8,5.4c0,0.5,0.1,0.9,0.1,1.4C114.7,180.7,106.8,182,98.6,182.2z M128.7,170.4c-0.9,0-1.8,0.2-2.6,0.5
		l-7.1-12.6c1-0.8,1.7-2.1,1.7-3.5c0-1.5-0.8-2.9-1.9-3.7l9-18.7c0.7,0.2,1.4,0.4,2.1,0.4c1.8,0,3.4-0.7,4.6-1.9l8.2,6.8
		c-0.2,0.5-0.4,1-0.4,1.5c0,1.9,1.5,3.4,3.4,3.4h0.1l4.4,18.1c-1.1,0.5-1.9,1.7-1.9,3c0,0.5,0.1,1,0.3,1.4
		c-4.4,3.3-9.2,6.1-14.2,8.5C133.2,171.7,131.1,170.4,128.7,170.4z M153.7,161.1c-0.6-0.4-1.3-0.7-2.1-0.7c0,0,0,0-0.1,0l-4.4-18.1
		c0.9-0.4,1.6-1.2,1.8-2.2l19.3,0.7c0.1,1,0.6,1.9,1.3,2.6C165.1,150,159.7,155.9,153.7,161.1z M171.2,135.9l-11.3-20.6
		c0.7-0.6,1.2-1.5,1.2-2.5c0-0.5-0.1-1-0.3-1.4l20-14.9c1,1.1,2.4,1.8,3.9,2c-0.7,13.5-4.4,26.1-10.5,37.3c-0.4-0.1-0.9-0.2-1.4-0.2
		C172.2,135.6,171.7,135.8,171.2,135.9z"/>
	<g>
		<g>
			<path class="st1" d="M247.7,20.8c19.5,0,30.5,12.9,30.5,27.6S267.2,76,247.7,76h-9.8v30.1l-0.6,0.6h-15.9l-0.6-0.6V21.4l0.6-0.6
				H247.7z M237.9,58.8h8.5c7.9,0,12.8-3.1,12.8-10.4c0-7.4-4.9-10.4-12.8-10.4h-8.5L237.9,58.8L237.9,58.8z"/>
			<path class="st1" d="M318.8,42.3c-2.7-3.7-6.3-5.5-9.4-5.5c-4.3,0-6.1,2.5-6.1,6.1c0,9.8,36,9.8,36,38.1
				c0,14.7-12.2,27.6-28.7,27.6c-12.8,0-24.4-6.8-28.7-19l14-9.5h1.2c3.1,8.2,8.5,10.7,13.4,10.7c6.1,0,10.4-3.7,10.4-9.8
				c0-14.7-36-14.1-36-38.1c0-14.1,10.9-24,24.4-24c10.4,0,17.1,4.3,23.8,13.5L320,42.3H318.8z"/>
			<path class="st1" d="M377.1,20.8c26.3,0,45.2,19.3,45.2,43s-18.9,43-45.2,43h-28.7l-0.6-0.6V21.4l0.6-0.6H377.1z M364.9,89.6
				h12.2c15.9,0,26.9-10.4,26.9-25.8S393,38,377.1,38h-12.2V89.6z"/>
			<path class="st1" d="M447.3,20.8l0.6,0.6v84.8l-0.6,0.6h-15.9l-0.6-0.6V21.4l0.6-0.6H447.3z"/>
		</g>
		<g>
			<path class="st1" d="M225.7,128.2c3.3,0,5.4,2.2,5.4,4.8s-2.1,4.8-5.4,4.8h-2.3v5.7l-0.1,0.1H221l-0.1-0.1v-15.2l0.1-0.1H225.7z
				 M223.4,135.3h2.2c1.6,0,2.6-0.9,2.6-2.3s-1-2.2-2.6-2.2h-2.2V135.3z"/>
			<path class="st1" d="M235.7,128.2l0.1,0.1v5.7h7.8v-5.7l0.1-0.1h2.4l0.1,0.1v15.2l-0.1,0.1h-2.4l-0.1-0.1v-6.9h-7.8v6.9l-0.1,0.1
				h-2.3l-0.1-0.1v-15.2l0.1-0.1H235.7z"/>
			<path class="st1" d="M250.9,128.2l0.2,0.1l3.8,5.2l3.8-5.2l0.2-0.1h2.8l0.1,0.1l-5.5,7.7v7.5l-0.1,0.1h-2.3l-0.1-0.1V136
				l-5.5-7.7l0.1-0.1H250.9z"/>
			<path class="st1" d="M269.1,131.7c-0.6-0.7-1.1-1.1-1.9-1.1s-1.3,0.6-1.3,1.4c0,2,6.6,2,6.6,7c0,2.7-2.2,5-5.1,5
				c-2.2,0-4.1-1.2-4.8-3.3l2-1.5h0.2c0.6,1.5,1.5,2.1,2.6,2.1c1.3,0,2.2-0.9,2.2-2.3c0-2.9-6.6-2.7-6.6-7c0-2.3,1.8-4.1,4.2-4.1
				c1.8,0,3.1,0.9,4,2.4l-2,1.5L269.1,131.7L269.1,131.7z"/>
			<path class="st1" d="M277.4,128.2l0.1,0.1v15.2l-0.1,0.1h-2.3l-0.1-0.1v-15.2l0.1-0.1H277.4z"/>
			<path class="st1" d="M293.4,132.5c-1.4-1.2-3.2-1.9-5.2-1.9c-2.9,0-5.2,2.4-5.2,5.3c0,3,2.3,5.3,5.2,5.3c2,0,3.7-0.7,5.2-1.9
				l0.1,0.1v2.9c-1.4,1-3.2,1.6-5.3,1.6c-4.5,0-8.1-3.6-8.1-8s3.6-8,8.1-8c2.1,0,3.9,0.5,5.3,1.6v2.9L293.4,132.5z"/>
			<path class="st1" d="M303.7,128.2l0.1,0.1l6,15.2l-0.1,0.1H307l-0.1-0.1l-1.3-3.3h-6.3l-1.3,3.3l-0.1,0.1h-2.7l-0.1-0.1l6-15.2
				l0.1-0.1H303.7z M300.2,137.6h4.4l-2.2-5.9L300.2,137.6z"/>
			<path class="st1" d="M314,128.2L314,128.2l0.1,12.8h6.6l0.1,0.1v2.4l-0.1,0.1h-9.1l-0.1-0.1v-15.2l0.1-0.1H314z"/>
			<path class="st1" d="M334.8,131.7c-0.6-0.7-1.1-1.1-1.9-1.1s-1.3,0.6-1.3,1.4c0,2,6.6,2,6.6,7c0,2.7-2.2,5-5.1,5
				c-2.2,0-4.1-1.2-4.8-3.3l2-1.5h0.2c0.6,1.5,1.5,2.1,2.6,2.1c1.3,0,2.2-0.9,2.2-2.3c0-2.9-6.6-2.7-6.6-7c0-2.3,1.8-4.1,4.2-4.1
				c1.8,0,3.1,0.9,4,2.4l-2,1.5L334.8,131.7L334.8,131.7z"/>
			<path class="st1" d="M353.4,132.5c-1.4-1.2-3.2-1.9-5.2-1.9c-2.9,0-5.2,2.4-5.2,5.3c0,3,2.3,5.3,5.2,5.3c2,0,3.7-0.7,5.2-1.9
				l0.1,0.1v2.9c-1.4,1-3.2,1.6-5.3,1.6c-4.5,0-8.1-3.6-8.1-8s3.6-8,8.1-8c2.1,0,3.9,0.5,5.3,1.6v2.9L353.4,132.5z"/>
			<path class="st1" d="M358.9,128.2l0.1,0.1v15.2l-0.1,0.1h-2.3l-0.1-0.1v-15.2l0.1-0.1H358.9z"/>
			<path class="st1" d="M372,128.2l0.1,0.1v2.4l-0.1,0.1h-7.3v3.3h5.4l0.1,0.1v2.4l-0.1,0.1h-5.4v4.4h7.7l0.1,0.1v2.4l-0.1,0.1
				h-10.2l-0.1-0.1v-15.2l0.1-0.1h9.8V128.2z"/>
			<path class="st1" d="M377.5,128.2l0.2,0.1l8.5,11v-11l0.1-0.1h2.4l0.1,0.1v15.2l-0.1,0.1h-2.5l-0.2-0.1l-8.5-11v11l-0.1,0.1H375
				l-0.1-0.1v-15.2l0.1-0.1H377.5z"/>
			<path class="st1" d="M404.6,132.5c-1.4-1.2-3.2-1.9-5.2-1.9c-2.9,0-5.2,2.4-5.2,5.3c0,3,2.3,5.3,5.2,5.3c2,0,3.7-0.7,5.2-1.9
				l0.1,0.1v2.9c-1.4,1-3.2,1.6-5.3,1.6c-4.5,0-8.1-3.6-8.1-8s3.6-8,8.1-8c2.1,0,3.9,0.5,5.3,1.6v2.9L404.6,132.5z"/>
			<path class="st1" d="M417.5,128.2l0.1,0.1v2.4l-0.1,0.1h-7.3v3.3h5.4l0.1,0.1v2.4l-0.1,0.1h-5.4v4.4h7.7l0.1,0.1v2.4l-0.1,0.1
				h-10.2l-0.1-0.1v-15.2l0.1-0.1h9.8V128.2z"/>
			<path class="st1" d="M426,131.7c-0.6-0.7-1.1-1.1-1.9-1.1s-1.3,0.6-1.3,1.4c0,2,6.6,2,6.6,7c0,2.7-2.2,5-5.1,5
				c-2.2,0-4.1-1.2-4.8-3.3l2-1.5h0.2c0.6,1.5,1.5,2.1,2.6,2.1c1.3,0,2.2-0.9,2.2-2.3c0-2.9-6.6-2.7-6.6-7c0-2.3,1.8-4.1,4.2-4.1
				c1.8,0,3.1,0.9,4,2.4l-2,1.5L426,131.7L426,131.7z"/>
			<path class="st1" d="M226.1,152.4c4.7,0,8.1,3.4,8.1,7.7s-3.4,7.7-8.1,7.7h-5.2l-0.1-0.1v-15.2l0.1-0.1L226.1,152.4L226.1,152.4z
				 M223.4,165.3h2.7c3.1,0,5.3-2.2,5.3-5.1c0-2.9-2.2-5.1-5.3-5.1h-2.7V165.3z"/>
			<path class="st1" d="M244,152.4l0.1,0.1l6,15.2l-0.1,0.1h-2.7l-0.1-0.1l-1.3-3.3h-6.3l-1.3,3.3l-0.1,0.1h-2.7l-0.1-0.1l6-15.2
				l0.1-0.1H244z M240.6,161.8h4.4l-2.2-5.9L240.6,161.8z"/>
			<path class="st1" d="M260.6,152.4l0.1,0.1v2.4l-0.1,0.1h-4.8v12.7l-0.1,0.1h-2.3l-0.1-0.1V155h-4.8l-0.1-0.1v-2.4l0.1-0.1H260.6z
				"/>
			<path class="st1" d="M267.5,152.4l0.1,0.1l6,15.2l-0.1,0.1h-2.7l-0.1-0.1l-1.3-3.3h-6.3l-1.3,3.3l-0.1,0.1H259l-0.1-0.1l6-15.2
				l0.1-0.1H267.5z M264.1,161.8h4.4l-2.2-5.9L264.1,161.8z"/>
			<path class="st1" d="M282.7,152.4l0.1,0.1v15.2l-0.1,0.1h-2.3l-0.1-0.1v-15.2l0.1-0.1H282.7z"/>
			<path class="st1" d="M288.5,152.4l0.2,0.1l8.5,11v-11l0.1-0.1h2.4l0.1,0.1v15.2l-0.1,0.1h-2.5l-0.2-0.1l-8.5-11v11l-0.1,0.1H286
				l-0.1-0.1v-15.2l0.1-0.1H288.5z"/>
			<path class="st1" d="M312.6,152.4l0.1,0.1v2.4l-0.1,0.1h-7.2v3.3h5.3l0.1,0.1v2.4l-0.1,0.1h-5.3v6.8l-0.1,0.1H303l-0.1-0.1v-15.2
				l0.1-0.1L312.6,152.4L312.6,152.4z"/>
			<path class="st1" d="M319.3,152.4c3.2,0,5.2,2,5.2,4.5c0,1.8-0.9,3.2-2.5,3.8l5.1,7l-0.1,0.1h-3l-0.1-0.1l-4.7-6.3h-1.6v6.3
				l-0.1,0.1h-2.3l-0.1-0.1v-15.2l0.1-0.1H319.3z M317.5,158.9h1.7c1.4,0,2.3-0.7,2.3-1.9s-0.8-1.9-2.3-1.9h-1.7V158.9z"/>
			<path class="st1" d="M336.1,152.4l0.1,0.1l6,15.2l-0.1,0.1h-2.7l-0.1-0.1l-1.3-3.3h-6.3l-1.3,3.3l-0.1,0.1h-2.7l-0.1-0.1l6-15.2
				l0.1-0.1H336.1z M332.7,161.8h4.4l-2.2-5.9L332.7,161.8z"/>
			<path class="st1" d="M349.7,155.9c-0.6-0.7-1.1-1.1-1.9-1.1s-1.3,0.6-1.3,1.4c0,2,6.6,2,6.6,7c0,2.7-2.2,5-5.1,5
				c-2.2,0-4.1-1.2-4.8-3.3l2-1.5h0.2c0.6,1.5,1.5,2.1,2.6,2.1c1.3,0,2.2-0.9,2.2-2.3c0-2.9-6.6-2.7-6.6-7c0-2.3,1.8-4.1,4.2-4.1
				c1.8,0,3.1,0.9,4,2.4l-2,1.5L349.7,155.9L349.7,155.9z"/>
			<path class="st1" d="M366,152.4l0.1,0.1v2.4L366,155h-4.8v12.7l-0.1,0.1h-2.3l-0.1-0.1V155h-4.8l-0.1-0.1v-2.4l0.1-0.1H366z"/>
			<path class="st1" d="M372.6,152.4c3.2,0,5.2,2,5.2,4.5c0,1.8-0.9,3.2-2.5,3.8l5.1,7l-0.1,0.1h-3l-0.1-0.1l-4.7-6.3h-1.6v6.3
				l-0.1,0.1h-2.3l-0.1-0.1v-15.2l0.1-0.1H372.6z M370.9,158.9h1.7c1.4,0,2.3-0.7,2.3-1.9s-0.8-1.9-2.3-1.9h-1.7V158.9z"/>
			<path class="st1" d="M383.5,152.4l0.1,0.1v8c0,3.2,1.9,4.9,4.3,4.9c2.3,0,4.2-1.7,4.2-4.9v-8l0.1-0.1h2.4l0.1,0.1v8.5
				c0,4.5-3.1,7.2-6.8,7.2c-3.7,0-6.8-2.6-6.8-7.2v-8.5l0.1-0.1H383.5z"/>
			<path class="st1" d="M410.5,156.7c-1.4-1.2-3.2-1.9-5.2-1.9c-2.9,0-5.2,2.4-5.2,5.3s2.3,5.3,5.2,5.3c2,0,3.7-0.7,5.2-1.9l0.1,0.1
				v2.9c-1.4,1-3.2,1.6-5.3,1.6c-4.5,0-8.1-3.6-8.1-8s3.6-8,8.1-8c2.1,0,3.9,0.5,5.3,1.6v2.9L410.5,156.7z"/>
			<path class="st1" d="M424.8,152.4l0.1,0.1v2.4l-0.1,0.1H420v12.7l-0.1,0.1h-2.3l-0.1-0.1V155h-4.8l-0.1-0.1v-2.4l0.1-0.1H424.8z"
				/>
			<path class="st1" d="M429.6,152.4l0.1,0.1v8c0,3.2,1.9,4.9,4.3,4.9c2.3,0,4.2-1.7,4.2-4.9v-8l0.1-0.1h2.4l0.1,0.1v8.5
				c0,4.5-3.1,7.2-6.8,7.2s-6.8-2.6-6.8-7.2v-8.5l0.1-0.1H429.6z"/>
			<path class="st1" d="M448.3,152.4c3.2,0,5.2,2,5.2,4.5c0,1.8-0.9,3.2-2.5,3.8l5.1,7l-0.1,0.1h-3l-0.1-0.1l-4.7-6.3h-1.6v6.3
				l-0.1,0.1h-2.3l-0.1-0.1v-15.2l0.1-0.1H448.3z M446.5,158.9h1.7c1.4,0,2.3-0.7,2.3-1.9s-0.8-1.9-2.3-1.9h-1.7V158.9z"/>
			<path class="st1" d="M467.7,152.4l0.1,0.1v2.4l-0.1,0.1h-7.3v3.3h5.4l0.1,0.1v2.4l-0.1,0.1h-5.4v4.4h7.7l0.1,0.1v2.4l-0.1,0.1
				H458l-0.1-0.1v-15.2l0.1-0.1h9.7V152.4z"/>
		</g>
	</g>
</g>
</svg>
